<svg width="256px" height="256px" viewBox="-2.4 -2.4 28.80 28.80" id="meteor-icon-kit__regular-long-arrow-up" fill="none" xmlns="http://www.w3.org/2000/svg" transform="rotate(0)matrix(-1, 0, 0, 1, 0, 0)"><g id="SVGRepo_bgCarrier" stroke-width="0"></g><g id="SVGRepo_tracerCarrier" stroke-linecap="round" stroke-linejoin="round" stroke="#CCCCCC" stroke-width="0.192"></g><g id="SVGRepo_iconCarrier"><path fill-rule="evenodd" clip-rule="evenodd" d="M8 3.41421V23C8 23.5523 7.5523 24 7 24C6.4477 24 6 23.5523 6 23V3.41421L1.70711 7.70711C1.31658 8.09763 0.68342 8.09763 0.29289 7.70711C-0.09763 7.31658 -0.09763 6.68342 0.29289 6.29289L6.2929 0.292893C6.6834 -0.0976311 7.3166 -0.0976311 7.7071 0.292893L13.7071 6.29289C14.0976 6.68342 14.0976 7.31658 13.7071 7.70711C13.3166 8.09763 12.6834 8.09763 12.2929 7.70711L8 3.41421z" fill="#b8bfc7"></path></g></svg>